# xmcd
#
# Track frame offsets:
#   150
#   23127
#   40716
#   59249
#
# Disc length: 960 seconds
#
# Revision: 0
# Processed by: cddbd v1.5.1PL0 Copyright (c) Steve Scherf et al.
# Submitted via: GXTranscoder 2.0.1939
#
DISCID=3003be04
DTITLE=fd - f
DYEAR=1900
DGENRE=ffe
TTITLE0=who you are
TTITLE1=ef
TTITLE2=lk
TTITLE3=klkl
EXTD=
EXTT0=
EXTT1=
EXTT2=
EXTT3=
PLAYORDER=
